<?xml version="1.0" standalone="no"?><!DOCTYPE svg PUBLIC "-//W3C//DTD SVG 1.1//EN" "http://www.w3.org/Graphics/SVG/1.1/DTD/svg11.dtd"><svg t="1726059531714" class="icon" viewBox="0 0 1024 1024" version="1.1" xmlns="http://www.w3.org/2000/svg" p-id="29619" xmlns:xlink="http://www.w3.org/1999/xlink" width="200" height="200"><path d="M670.34 104.1c-76.87 0-146.13 32.54-194.8 84.58-26.07-30.04-64.53-49.02-107.42-49.02-78.55 0-142.23 63.67-142.23 142.23 0 1.18 0.01 2.37 0.05 3.54-81.17 16.46-142.27 88.2-142.27 174.23 0 98.18 79.58 177.77 177.77 177.77h408.89C817.6 637.42 937 518.04 937 370.76c0-147.28-119.4-266.66-266.66-266.66z" fill="#CCD1D9" p-id="29620"></path><path d="M840.27 165.27c38.2 46.15 61.17 105.35 61.17 169.95 0 147.27-119.39 266.66-266.66 266.66H225.89c-40.03 0-76.95-13.24-106.67-35.56 32.43 43.18 84.06 71.11 142.23 71.11h408.89C817.6 637.42 937 518.04 937 370.76c0-82.68-37.64-156.59-96.73-205.49z" fill="#AAB2BC" p-id="29621"></path><path d="M403.67 797.42c0 9.82-7.97 17.77-17.79 17.77s-17.77-7.95-17.77-17.77 7.95-17.77 17.77-17.77 17.79 7.95 17.79 17.77zM510.34 797.42c0 9.82-7.97 17.77-17.79 17.77s-17.77-7.95-17.77-17.77 7.95-17.77 17.77-17.77 17.79 7.95 17.79 17.77zM562.38 690.2c0 9.83-7.96 17.79-17.77 17.79-9.83 0-17.79-7.95-17.79-17.79 0-9.82 7.95-17.77 17.79-17.77 9.81-0.01 17.77 7.95 17.77 17.77zM456.82 690.2c0 9.83-7.97 17.79-17.79 17.79s-17.77-7.95-17.77-17.79c0-9.82 7.95-17.77 17.77-17.77 9.82-0.01 17.79 7.95 17.79 17.77zM350.34 904.09c0 9.82-7.97 17.77-17.79 17.77s-17.77-7.95-17.77-17.77 7.95-17.77 17.77-17.77 17.79 7.95 17.79 17.77zM457 904.09c0 9.82-7.97 17.77-17.79 17.77s-17.77-7.95-17.77-17.77 7.95-17.77 17.77-17.77c9.83 0 17.79 7.95 17.79 17.77z" fill="#CCD1D9" p-id="29622"></path><path d="M225.87 921.88c-2.67 0-5.38-0.61-7.93-1.89-8.79-4.39-12.34-15.06-7.96-23.84l106.67-213.33c4.39-8.79 15.07-12.34 23.85-7.96 8.78 4.39 12.34 15.07 7.94 23.85L241.78 912.04c-3.11 6.23-9.38 9.84-15.91 9.84zM545.87 921.88c-2.67 0-5.38-0.61-7.93-1.89-8.79-4.39-12.34-15.06-7.96-23.84l106.67-213.33c4.39-8.79 15.07-12.34 23.85-7.96 8.78 4.39 12.34 15.07 7.94 23.85L561.78 912.04c-3.11 6.23-9.39 9.84-15.91 9.84z" fill="#5D9CEC" p-id="29623"></path></svg>