<?xml version="1.0" standalone="no"?><!DOCTYPE svg PUBLIC "-//W3C//DTD SVG 1.1//EN" "http://www.w3.org/Graphics/SVG/1.1/DTD/svg11.dtd"><svg t="1726059669051" class="icon" viewBox="0 0 1024 1024" version="1.1" xmlns="http://www.w3.org/2000/svg" p-id="33703" xmlns:xlink="http://www.w3.org/1999/xlink" width="200" height="200"><path d="M541.873378 551.118949 541.873378 432.215886l100.623745 58.095139 27.939329 124.499525c2.086521 9.307993 10.347672 15.631002 19.501146 15.631002 1.452071 0 2.924609-0.158612 4.400217-0.490164 10.781554-2.419096 17.560958-13.119809 15.140839-23.901363l-19.868513-88.537476 92.702332 53.521984c3.151783 1.819438 6.590092 2.684132 9.984399 2.684132 6.91448 0 13.641695-3.589758 17.346063-10.007935 5.525853-9.56996 2.24718-21.805632-7.322779-27.330462l-91.488691-52.821019 84.634586-26.444279c10.547217-3.296069 16.426111-14.517645 13.130042-25.063839-3.294023-10.547217-14.505365-16.428158-25.063839-13.130042l-119.815853 37.436634-102.886275-59.400878 100.913341-58.261938 121.788787 38.052664c1.987261 0.621147 3.996011 0.915859 5.973038 0.915859 8.519024-0.002047 16.415878-5.486968 19.0908-14.045901 3.296069-10.547217-2.582825-21.767769-13.130042-25.063839l-86.60752-27.060309 92.701309-53.520961c9.56996-5.52483 12.848633-17.761526 7.322779-27.330462-5.5279-9.572006-17.768689-12.847609-27.330462-7.322779l-91.489714 52.821019 19.415189-86.520539c2.421142-10.781554-4.359284-21.48329-15.140839-23.902386-10.789741-2.420119-21.484314 4.361331-23.903409 15.141862l-27.486004 122.483612-101.076046 58.356083L541.871331 245.054205l92.040253-84.778872c8.126075-7.486508 8.645914-20.144806 1.160429-28.271904-7.487531-8.129144-20.144806-8.648984-28.272927-1.161453l-64.928778 59.806107L541.870308 85.641519c0-11.04966-8.905834-20.007683-19.954471-20.007683s-19.954471 8.958022-19.954471 20.007683L501.961366 192.681394l-67.135026-61.838394c-8.134261-7.487531-20.785396-6.965645-28.272927 1.161453-7.485485 8.127098-6.965645 20.785396 1.160429 28.271904l94.246501 86.811158L501.960343 362.969778l-102.845343-59.377342-27.487028-122.483612c-2.417049-10.780531-13.114692-17.565051-23.901363-15.140839-10.782577 2.420119-17.560958 13.120832-15.141862 23.903409l19.416212 86.518492-91.926666-53.073776c-9.568936-5.52176-21.806655-2.245134-27.330462 7.322779-5.525853 9.568936-2.246157 21.806655 7.322779 27.330462l93.13826 53.772694-86.60752 27.060309c-10.547217 3.296069-16.425088 14.517645-13.130042 25.063839 2.674922 8.562003 10.571776 14.046924 19.0908 14.046924 1.976004 0 3.986801-0.294712 5.973038-0.916882l121.788787-38.052664 100.476389 58.010205-102.449323 59.149145-119.815853-37.438681c-10.540054-3.294023-21.767769 2.584871-25.063839 13.130042-3.295046 10.547217 2.582825 21.767769 13.130042 25.063839l84.634586 26.445302-91.925642 53.072753c-9.568936 5.525853-12.848633 17.760502-7.322779 27.330462 3.705392 6.418176 10.43056 10.007935 17.34504 10.007935 3.394307 0 6.834662-0.865717 9.985422-2.684132l93.139284-53.773717-19.868513 88.536452c-2.420119 10.781554 4.359284 21.48329 15.141862 23.901363 1.475608 0.332575 2.948145 0.490164 4.39817 0.490164 9.155521 0 17.416671-6.325056 19.503193-15.631002l27.939329-124.499525 102.393042-59.116399 0 118.143771-94.246501 86.810135c-8.126075 7.487531-8.645914 20.144806-1.160429 28.272927 7.485485 8.121981 20.142759 8.643867 28.272927 1.160429l67.135026-61.838394 0 106.388029c0 11.048637 8.905834 20.007683 19.954471 20.007683s19.954471-8.958022 19.954471-20.007683L541.870308 605.524047l64.928778 59.806107c3.847631 3.542686 8.704243 5.291516 13.549597 5.291516 5.396917 0 10.777461-2.170432 14.722306-6.451946 7.485485-8.128121 6.965645-20.785396-1.160429-28.272927L541.873378 551.118949z" fill="#272636" p-id="33704"></path><path d="M361.336582 760.66136c-5.523807-9.567913-17.760502-12.846586-27.330462-7.322779l-66.378803 38.32384 0-77.780481c0-11.04966-9.417487-20.007683-20.466124-20.007683s-20.466124 8.958022-20.466124 20.007683l0 78.809927-68.161403-39.353286c-9.56689-5.52176-21.806655-2.24718-27.330462 7.322779-5.525853 9.56996-2.246157 21.805632 7.322779 27.330462l67.728544 39.1036-67.455321 38.946011c-9.568936 5.525853-12.848633 17.760502-7.322779 27.330462 3.705392 6.418176 10.43056 10.007935 17.34504 10.007935 3.394307 0 6.834662-0.865717 9.985422-2.684132l67.88818-39.195697 0 76.467579c0 11.048637 9.417487 20.007683 20.466124 20.007683s20.466124-8.958022 20.466124-20.007683l0-75.438133 66.104557 38.166251c3.151783 1.819438 6.590092 2.684132 9.984399 2.684132 6.91448 0 13.639648-3.589758 17.346063-10.007935 5.525853-9.56996 2.24718-21.805632-7.322779-27.330462l-67.455321-38.946011 67.728544-39.1036C363.583762 782.465968 366.862435 770.231319 361.336582 760.66136z" fill="#272636" p-id="33705"></path><path d="M884.805798 866.041432l-67.455321-38.946011 67.729567-39.1036c9.56996-5.525853 12.848633-17.760502 7.322779-27.330462-5.523807-9.567913-17.760502-12.846586-27.330462-7.322779l-67.37141 38.896892 0-78.353532c0-11.04966-8.905834-20.007683-19.954471-20.007683s-19.954471 8.958022-19.954471 20.007683l0 78.827323-68.193125-39.371706c-9.574053-5.523807-21.806655-2.245134-27.330462 7.322779-5.525853 9.56996-2.24718 21.805632 7.322779 27.330462l67.729567 39.1036-67.455321 38.946011c-9.56996 5.525853-12.848633 17.760502-7.322779 27.330462 3.706415 6.418176 10.429537 10.007935 17.346063 10.007935 3.394307 0 6.834662-0.865717 9.984399-2.684132l67.919902-39.213094 0 76.484975c0 11.048637 8.905834 20.007683 19.954471 20.007683s19.954471-8.958022 19.954471-20.007683l0-76.011184 67.098187 38.739303c3.151783 1.819438 6.590092 2.684132 9.984399 2.684132 6.91448 0 13.641695-3.589758 17.346063-10.007935C897.65443 883.801934 894.375757 871.566262 884.805798 866.041432z" fill="#272636" p-id="33706"></path></svg>