<?xml version="1.0" standalone="no"?><!DOCTYPE svg PUBLIC "-//W3C//DTD SVG 1.1//EN" "http://www.w3.org/Graphics/SVG/1.1/DTD/svg11.dtd"><svg t="1726059732146" class="icon" viewBox="0 0 1024 1024" version="1.1" xmlns="http://www.w3.org/2000/svg" p-id="37825" xmlns:xlink="http://www.w3.org/1999/xlink" width="200" height="200"><path d="M376.128 633.94304c-12.73472 0-23.06048 10.3168-23.06048 23.04v94.0096c0 12.7232 10.32576 23.04 23.06176 23.04s23.06048-10.3168 23.06048-23.04v-94.0096c0-12.7232-10.32576-23.04-23.06048-23.04M376.128 829.77792c-12.73472 0-23.06048 10.3168-23.06048 23.04v94.01472c0 12.7232 10.32576 23.04 23.06176 23.04s23.06048-10.3168 23.06048-23.04v-94.016c0-12.7232-10.32576-23.04-23.06048-23.04M538.39104 750.99392v-94.0096c0-12.7232-10.32576-23.04-23.06176-23.04s-23.06048 10.3168-23.06048 23.04v94.0096c0 12.7232 10.32576 23.04 23.06048 23.04 12.736 0 23.06176-10.3168 23.06176-23.04" fill="#5050B2" p-id="37826"></path><path d="M694.1376 485.52192a121.5616 121.5616 0 0 1-31.82976-4.25728c-8.82688-2.37312-18.28224 0.65664-24.02432 7.80544-32.43008 40.33664-80.66816 63.4752-132.33664 63.4752-50.688 0-98.32704-22.39488-130.70976-61.44256a23.10144 23.10144 0 0 0-17.76384-8.34048c-1.25696 0-2.53056 0.10368-3.79904 0.31744-6.75712 1.12256-13.52576 1.69856-20.13184 1.69856-66.72768 0-121.01888-54.24128-121.01888-120.9088 0-63.68128 49.78304-116.67328 113.33376-120.63616a23.0592 23.0592 0 0 0 20.7616-16.75008c20.50048-72.67968 87.648-123.4432 163.2768-123.4432 75.83104 0 143.0272 50.9248 163.40096 123.8528a23.04768 23.04768 0 0 0 21.99424 16.84096c66.0928 0.62208 119.8656 54.848 119.8656 120.87936 0 66.66624-54.2912 120.9088-121.01888 120.9088m18.4832-286.8544C681.8624 114.4512 600.75776 56.96 509.89696 56.96c-90.91328 0-172.16896 57.664-202.84672 142.0416C227.00544 211.76064 166.4 281.312 166.4 363.87072c0 92.07296 74.98368 166.9888 167.1424 166.9888 4.86528 0 9.77792-0.22016 14.71232-0.66304 40.77824 43.63776 97.5552 68.4288 157.69216 68.4288 60.84096 0 117.92384-25.20576 158.7712-69.632a167.47264 167.47264 0 0 0 29.41952 2.60864c92.15872 0 167.1424-74.91456 167.1424-166.9888 0-85.50656-65.27488-156.67712-148.6592-165.9456" fill="#5050B2" p-id="37827"></path><path d="M658.6048 669.74848a5.78304 5.78304 0 0 0-8.15232 0l-30.19264 30.16576a5.77024 5.77024 0 0 0 0 8.14464l30.19264 30.16448a5.78304 5.78304 0 0 0 8.15232 0l30.19264-30.16448a5.77024 5.77024 0 0 0 0-8.14464l-30.19264-30.16576zM658.6048 865.984a5.78304 5.78304 0 0 0-8.15232 0l-30.19264 30.16576a5.77024 5.77024 0 0 0 0 8.14464l30.19264 30.16448a5.78304 5.78304 0 0 0 8.15232 0l30.19264-30.16448a5.77024 5.77024 0 0 0 0-8.14464l-30.19264-30.16576zM519.40608 866.944a5.78304 5.78304 0 0 0-8.1536 0l-30.19136 30.16576a5.77024 5.77024 0 0 0 0 8.14464l30.19264 30.16576a5.78304 5.78304 0 0 0 8.15232 0l30.19264-30.16576a5.77024 5.77024 0 0 0 0-8.14464l-30.19264-30.16448z" fill="#5050B2" p-id="37828"></path></svg>