<?xml version="1.0" standalone="no"?><!DOCTYPE svg PUBLIC "-//W3C//DTD SVG 1.1//EN" "http://www.w3.org/Graphics/SVG/1.1/DTD/svg11.dtd"><svg t="1726059318156" class="icon" viewBox="0 0 1024 1024" version="1.1" xmlns="http://www.w3.org/2000/svg" p-id="10743" xmlns:xlink="http://www.w3.org/1999/xlink" width="200" height="200"><path d="M526.04928 391.43424a20.13184 20.13184 0 0 1-28.672 0l-5.72416-5.76512a20.5312 20.5312 0 0 1 0-28.86656l74.45504-75.04896a20.13184 20.13184 0 0 1 28.672 0l5.72416 5.76512a20.5312 20.5312 0 0 1 0 28.86656z m-97.04448 209.38752a181.16608 181.16608 0 0 0-65.9968 35.7376 126.45376 126.45376 0 1 1 133.77536-165.5808 239.47264 239.47264 0 0 0-67.77856 129.8432z m-50.176-249.06752h-10.24a19.16928 19.16928 0 0 1-19.16928-19.17952V223.97952A19.16928 19.16928 0 0 1 368.56832 204.8h10.24a19.16928 19.16928 0 0 1 19.17952 19.17952v108.5952a19.16928 19.16928 0 0 1-19.17952 19.17952z m-129.35168 39.68a20.25472 20.25472 0 0 1-28.74368 0l-74.752-75.04896a20.48 20.48 0 0 1 0-28.86656l5.75488-5.76512a20.24448 20.24448 0 0 1 28.73344 0l74.752 75.04896a20.48 20.48 0 0 1 0 28.86656zM212.21376 502.784v8.192a20.36736 20.36736 0 0 1-20.31616 20.40832H86.23104A20.36736 20.36736 0 0 1 65.91488 510.976v-8.192a20.35712 20.35712 0 0 1 20.31616-20.40832h105.63584a20.35712 20.35712 0 0 1 20.34688 20.40832z m8.4992 119.52128a20.2752 20.2752 0 0 1 28.74368 0l5.74464 5.77536a20.48 20.48 0 0 1 0 28.86656l-74.752 75.04896a20.24448 20.24448 0 0 1-28.73344 0l-5.75488-5.77536a20.48 20.48 0 0 1 0-28.86656z" fill="#FFCD00" p-id="10744"></path><path d="M250.23488 819.2h645.12s153.6-110.08-20.48-204.8c0 0-14.08-184.32-194.56-184.32 0 0-186.88-26.88-204.8 194.56 0 0-139.48928-11.776-143.36 122.88-92.5696 0.512-105.59488 71.68-81.92 71.68z" fill="#CCDCF5" p-id="10745"></path></svg>