<?xml version="1.0" standalone="no"?><!DOCTYPE svg PUBLIC "-//W3C//DTD SVG 1.1//EN" "http://www.w3.org/Graphics/SVG/1.1/DTD/svg11.dtd"><svg t="1726059522533" class="icon" viewBox="0 0 1024 1024" version="1.1" xmlns="http://www.w3.org/2000/svg" p-id="29465" xmlns:xlink="http://www.w3.org/1999/xlink" width="200" height="200"><path d="M680.66 86.97c-79.91 0-151.9 33.82-202.49 87.91-27.09-31.21-67.08-50.96-111.66-50.96-81.65 0-147.84 66.2-147.84 147.84 0 1.23 0.01 2.46 0.05 3.69-84.37 17.11-147.89 91.68-147.89 181.09 0 102.06 82.74 184.8 184.8 184.8h425.02c153.07 0 277.17-124.1 277.17-277.18 0.01-153.09-124.09-277.19-277.16-277.19z" fill="#CCD1D9" p-id="29466"></path><path d="M857.3 150.54c39.71 47.97 63.59 109.52 63.59 176.65 0 153.09-124.1 277.18-277.18 277.18H218.68c-41.61 0-79.99-13.75-110.87-36.95 33.71 44.88 87.38 73.91 147.84 73.91h425.02c153.07 0 277.17-124.1 277.17-277.18-0.01-85.95-39.12-162.76-100.54-213.61z" fill="#AAB2BC" p-id="29467"></path><path d="M403.48 807.65c0 10.21-8.28 18.47-18.49 18.47s-18.47-8.27-18.47-18.47 8.27-18.49 18.47-18.49 18.49 8.29 18.49 18.49z" fill="#E6E9ED" p-id="29468"></path><path d="M514.35 807.65c0 10.21-8.28 18.47-18.49 18.47s-18.47-8.27-18.47-18.47 8.27-18.49 18.47-18.49 18.49 8.29 18.49 18.49z" fill="#CCD1D9" p-id="29469"></path><path d="M569.79 696.78c0 10.21-8.28 18.47-18.49 18.47s-18.47-8.27-18.47-18.47 8.27-18.49 18.47-18.49 18.49 8.28 18.49 18.49z" fill="#E6E9ED" p-id="29470"></path><path d="M458.73 696.78c0 10.21-8.29 18.47-18.49 18.47-10.21 0-18.47-8.27-18.47-18.47s8.27-18.49 18.47-18.49 18.49 8.28 18.49 18.49zM348.04 918.53c0 10.21-8.28 18.47-18.49 18.47s-18.47-8.27-18.47-18.47 8.27-18.49 18.47-18.49 18.49 8.28 18.49 18.49zM292.78 807.65c0 10.21-8.27 18.47-18.47 18.47s-18.47-8.27-18.47-18.47 8.27-18.49 18.47-18.49 18.47 8.29 18.47 18.49z" fill="#CCD1D9" p-id="29471"></path><path d="M348.04 696.78c0 10.21-8.28 18.47-18.49 18.47s-18.47-8.27-18.47-18.47 8.27-18.49 18.47-18.49 18.49 8.28 18.49 18.49zM237.34 918.53c0 10.21-8.27 18.47-18.47 18.47s-18.47-8.27-18.47-18.47 8.27-18.49 18.47-18.49 18.47 8.28 18.47 18.49zM458.91 918.53c0 10.21-8.28 18.47-18.49 18.47s-18.47-8.27-18.47-18.47 8.27-18.49 18.47-18.49 18.49 8.28 18.49 18.49zM625.22 807.65c0 10.21-8.28 18.47-18.49 18.47s-18.47-8.27-18.47-18.47 8.27-18.49 18.47-18.49 18.49 8.29 18.49 18.49z" fill="#E6E9ED" p-id="29472"></path><path d="M680.66 696.78c0 10.21-8.28 18.47-18.49 18.47s-18.47-8.27-18.47-18.47 8.27-18.49 18.47-18.49 18.49 8.28 18.49 18.49zM569.79 918.53c0 10.21-8.28 18.47-18.49 18.47s-18.47-8.27-18.47-18.47 8.27-18.49 18.47-18.49 18.49 8.28 18.49 18.49z" fill="#CCD1D9" p-id="29473"></path></svg>