<?xml version="1.0" standalone="no"?><!DOCTYPE svg PUBLIC "-//W3C//DTD SVG 1.1//EN" "http://www.w3.org/Graphics/SVG/1.1/DTD/svg11.dtd"><svg t="1726059657301" class="icon" viewBox="0 0 1024 1024" version="1.1" xmlns="http://www.w3.org/2000/svg" p-id="33553" xmlns:xlink="http://www.w3.org/1999/xlink" width="200" height="200"><path d="M673.592328 480.643851l84.96716 49.056276c3.151783 1.819438 6.590092 2.684132 9.984399 2.684132 6.91448 0 13.641695-3.589758 17.346063-10.007935 5.525853-9.56996 2.24718-21.805632-7.322779-27.330462l-83.827197-48.39829 77.138868-24.102954c10.547217-3.296069 16.426111-14.517645 13.130042-25.063839-3.296069-10.547217-14.520715-16.430204-25.063839-13.130042L647.623887 419.446048l-94.669126-54.656831 92.812849-53.585429 114.176412 35.674501c1.987261 0.621147 3.996011 0.916882 5.973038 0.916882 8.519024-0.002047 16.416901-5.486968 19.0908-14.045901 3.296069-10.547217-2.582825-21.768793-13.130042-25.063839l-78.995145-24.682146 84.968184-49.056276c9.56996-5.52483 12.848633-17.761526 7.322779-27.330462s-17.758456-12.846586-27.330462-7.322779l-83.826174 48.397267 17.695011-78.853929c2.421142-10.782577-4.359284-21.484314-15.140839-23.903409-10.789741-2.424212-21.484314 4.361331-23.903409 15.140839l-25.765827 114.819049-93.216032 53.818743L533.685905 222.512816l86.529749-79.70225c8.126075-7.486508 8.645914-20.144806 1.160429-28.271904-7.487531-8.127098-20.144806-8.648984-28.272927-1.161453l-59.418274 54.730509L533.684882 71.63655c0-11.04966-8.905834-20.007683-19.954471-20.007683s-19.954471 8.956999-19.954471 20.007683l0 97.93245-61.001329-56.189743c-8.132214-7.488555-20.787442-6.965645-28.272927 1.160429-7.485485 8.127098-6.965645 20.785396 1.160429 28.271904l88.113827 81.161485L493.77594 330.62307l-94.387717-54.495148-25.765827-114.820072c-2.419096-10.779507-13.112646-17.559934-23.903409-15.140839-10.782577 2.420119-17.560958 13.120832-15.141862 23.903409l17.696034 78.854952-84.23959-48.635697c-9.567913-5.523807-21.805632-2.246157-27.330462 7.322779-5.525853 9.568936-2.246157 21.806655 7.322779 27.330462l85.380576 49.294706-78.995145 24.683169c-10.547217 3.295046-16.425088 14.517645-13.130042 25.063839 2.674922 8.562003 10.571776 14.046924 19.0908 14.046924 1.976004 0 3.986801-0.294712 5.973038-0.916882l114.176412-35.675524 92.400456 53.348022-94.255711 54.4184-112.321158-35.094286c-10.54824-3.294023-21.767769 2.582825-25.063839 13.130042-3.295046 10.547217 2.582825 21.767769 13.130042 25.063839l77.139891 24.102954-84.240613 48.63672c-9.568936 5.525853-12.848633 17.760502-7.322779 27.330462 3.705392 6.418176 10.43056 10.007935 17.34504 10.007935 3.394307 0 6.834662-0.865717 9.985422-2.684132l85.380576-49.294706-18.121729 80.753185c-2.420119 10.781554 4.359284 21.48329 15.141862 23.901363 1.475608 0.332575 2.948145 0.490164 4.39817 0.490164 9.155521 0 17.416671-6.325056 19.505239-15.631002l26.191522-116.716258 93.962022-54.249555 0 108.777449-88.113827 81.162508c-8.126075 7.487531-8.645914 20.144806-1.160429 28.272927 3.944845 4.28049 9.324366 6.451946 14.722306 6.451946 4.845355 0 9.705036-1.750877 13.550621-5.291516l61.001329-56.190767 0 97.723695c0 11.048637 8.905834 20.007683 19.954471 20.007683s19.954471-8.958022 19.954471-20.007683l0-96.263437 59.418274 54.730509c8.130168 7.485485 20.783349 6.965645 28.272927-1.162476 7.485485-8.126075 6.965645-20.783349-1.160429-28.27088l-86.529749-79.70225L533.685905 399.869177l92.791359 53.573149L652.668787 570.158584c2.088568 9.307993 10.349719 15.631002 19.505239 15.631002 1.450025 0 2.922563-0.158612 4.39817-0.490164 10.781554-2.419096 17.560958-13.119809 15.140839-23.901363L673.592328 480.643851z" fill="#272636" p-id="33554"></path><path d="M307.795155 647.942135c-5.52483-9.56996-17.763572-12.850679-27.330462-7.322779l-62.97938 36.361139 0-73.140811c0-11.048637-8.904811-20.007683-19.954471-20.007683s-19.954471 8.958022-19.954471 20.007683l0 72.086805-61.152778-35.307134c-9.56689-5.523807-21.806655-2.24718-27.330462 7.322779-5.525853 9.56996-2.24718 21.805632 7.322779 27.330462l62.013379 35.803437-61.755506 35.655058c-9.56996 5.525853-12.848633 17.760502-7.322779 27.330462 3.705392 6.418176 10.43056 10.007935 17.34504 10.007935 3.394307 0 6.834662-0.865717 9.985422-2.684132l60.894905-35.158754 0 69.693292c0 11.048637 8.904811 20.007683 19.954471 20.007683s19.954471-8.958022 19.954471-20.007683l0-70.747297 62.720484 36.21276c3.15076 1.819438 6.590092 2.684132 9.985422 2.684132 6.91448 0 13.639648-3.589758 17.34504-10.007935 5.525853-9.56996 2.24718-21.805632-7.322779-27.330462l-61.755506-35.655058 62.013379-35.803437C310.042335 669.747767 313.321008 657.512095 307.795155 647.942135z" fill="#272636" p-id="33555"></path><path d="M623.439068 767.988232c-5.523807-9.565866-17.760502-12.846586-27.330462-7.322779l-62.421678 36.039821 0-72.819492c0-11.048637-8.905834-20.007683-19.954471-20.007683s-19.954471 8.958022-19.954471 20.007683l0 72.409147-61.71048-35.629475c-9.572006-5.523807-21.805632-2.24718-27.330462 7.322779-5.525853 9.56996-2.24718 21.805632 7.322779 27.330462l62.013379 35.803437-61.755506 35.655058c-9.56996 5.525853-12.848633 17.760502-7.322779 27.330462 3.706415 6.418176 10.429537 10.007935 17.346063 10.007935 3.394307 0 6.834662-0.865717 9.984399-2.684132l61.452607-35.480073 0 70.01461c0 11.048637 8.905834 20.007683 19.954471 20.007683s19.954471-8.958022 19.954471-20.007683l0-70.424956 62.163805 35.890418c3.151783 1.819438 6.590092 2.684132 9.984399 2.684132 6.91448 0 13.639648-3.589758 17.346063-10.007935 5.525853-9.56996 2.24718-21.805632-7.322779-27.330462l-61.755506-35.655058 62.013379-35.803437C625.686249 789.79284 628.964922 777.558192 623.439068 767.988232z" fill="#272636" p-id="33556"></path><path d="M931.504376 746.732116l-61.756529-35.656081 62.012356-35.803437c9.56996-5.525853 12.848633-17.760502 7.322779-27.330462-5.523807-9.565866-17.760502-12.846586-27.330462-7.322779l-61.863976 35.71748 0-72.497151c0-11.048637-8.905834-20.007683-19.954471-20.007683s-19.954471 8.958022-19.954471 20.007683l0 72.729441-62.267159-35.94977c-9.572006-5.525853-21.805632-2.245134-27.330462 7.322779-5.525853 9.56996-2.24718 21.805632 7.322779 27.330462l62.012356 35.803437-61.756529 35.656081c-9.56996 5.525853-12.848633 17.760502-7.322779 27.330462 3.706415 6.418176 10.429537 10.007935 17.346063 10.007935 3.394307 0 6.834662-0.865717 9.984399-2.684132l62.010309-35.802414 0 70.336952c0 11.048637 8.905834 20.007683 19.954471 20.007683s19.954471-8.958022 19.954471-20.007683l0-70.104661 61.60815 35.5691c3.151783 1.819438 6.590092 2.684132 9.984399 2.684132 6.91448 0 13.639648-3.589758 17.346063-10.007935C944.353009 764.492618 941.074336 752.256946 931.504376 746.732116z" fill="#272636" p-id="33557"></path></svg>