<?xml version="1.0" standalone="no"?><!DOCTYPE svg PUBLIC "-//W3C//DTD SVG 1.1//EN" "http://www.w3.org/Graphics/SVG/1.1/DTD/svg11.dtd"><svg t="1726059744466" class="icon" viewBox="0 0 1024 1024" version="1.1" xmlns="http://www.w3.org/2000/svg" p-id="39024" xmlns:xlink="http://www.w3.org/1999/xlink" width="200" height="200"><path d="M423.4 450.6c1.9 0 3.8 0.3 5.7 0 61.5-5.8 109.9-56.4 109.9-119.4 0-66.5-53.8-120.3-120.2-120.9-13.3-0.1-26.2 7.8-30.6 20.4-7.7 21.9 8 42.5 28.8 43 12.5 0.3 25.1 3.6 34.6 11.8 50.1 43 15 110.2-33.8 110.2H100.2c-15.6 0-29.6 12.1-29.4 27.7 0.2 17.1 14.3 26.8 31.6 26.8l321 0.4z" fill="#F48E11" p-id="39025"></path><path d="M427.2 457.5c-0.8 0-1.5 0-2.3-0.1l-1.5-0.1-321.2-0.5c-22.3 0-38.1-13.8-38.3-33.5-0.1-8.7 3.3-17.1 9.7-23.5 6.9-7 16.6-11 26.5-11h317.6c20.8 0 40.1-14.2 48-35.4 8.2-22.2 1.3-45.7-18.6-62.8-9.3-8-21.6-10-30.3-10.2-12.2-0.3-23.7-6.5-30.6-16.6-7.1-10.3-8.7-23.3-4.4-35.5 5.2-14.9 20-24.9 36.8-24.9 70.3 0.6 127.3 57.9 127.3 127.7 0 65.7-49.9 120-116 126.2-0.6 0.2-1.6 0.2-2.7 0.2zM100 402.4c-6.3 0-12.4 2.5-16.8 7-3.8 3.8-5.8 8.7-5.8 13.8 0.2 14.8 13.5 20.1 24.7 20.1l321.2 0.5c0.8 0 1.6 0 2.3 0.1l1.5 0.1h0.6c59.7-5.6 104.3-54.1 104.3-112.7 0-62.4-50.9-113.5-113.4-114.1-11 0-20.9 6.5-24.2 15.8-2.8 8.1-1.8 16.6 2.8 23.3 4.5 6.5 11.9 10.5 19.7 10.7 15.6 0.4 29 5 38.8 13.4 24.4 20.9 32.8 50 22.5 77.8-9.8 26.5-34.2 44.3-60.7 44.3H100z" fill="#AA5700" p-id="39026"></path><path d="M433.1 560c-2.6-0.7-5.2 0-8 0l-180.5-1c-16.4 0-29.4 14.9-29.4 31.3v3.6c0 16.4 13 33.7 29.4 33.7l172.1-0.4h1.3c25.2 0 48.5 16.6 53.7 41.2 7.6 35.7-19.4 66.4-53.6 66.7-15.8 0.1-30.1 12-31.8 27.7-2 19.1 12.8 34.9 31.4 34.9 65.3 0 118.4-53.6 118.4-118.9 0-60.1-45-111.2-103-118.8z" fill="#F48E11" p-id="39027"></path><path d="M417.7 804.4c-10.9 0-21.4-4.6-28.6-12.7-7.3-8.1-10.7-18.7-9.5-29.7 2-18.8 18.9-33.6 38.5-33.8 14.8-0.1 28.5-6.7 37.7-18.1 9.1-11.3 12.4-25.7 9.3-40.4-4.4-20.7-24.2-35.8-47-35.8l-173.4 0.4c-21.4 0-36.2-21.3-36.2-40.5v-3.6c0-20.6 16.6-38.1 36.2-38.1l180.6 1c0.7 0 1.4-0.1 2.1-0.1 2.7-0.2 5.3-0.2 7.6 0.4 61.1 8 107.9 61.9 107.9 125.3 0 69.3-56.2 125.7-125.2 125.7z m-1-184.1c30.6 0 56 19.6 61.7 46.6 3.9 18.5-0.5 37.4-12 51.8-11.7 14.6-29.3 23-48.2 23.2-12.8 0.1-23.8 9.6-25.1 21.6-0.8 7.1 1.4 14 6.1 19.2 4.7 5.2 11.4 8.2 18.5 8.2 61.5 0 111.6-50.3 111.6-112.1 0-56.6-41.7-104.7-97.1-112l-1.7-0.3c-0.7 0-1.3 0.1-2 0.1-1.1 0.1-2.2 0.2-3.4 0.2l-180.6-1c-12 0-22.6 11.4-22.6 24.5v3.6c0 12.4 9.9 26.8 22.6 26.8l172.2-0.4z" fill="#AA5700" p-id="39028"></path><path d="M587.9 781.8c0 26.7 21.6 48.3 48.3 48.3s48.3-21.6 48.3-48.3c0-26.7-21.6-48.3-48.3-48.3s-48.3 21.6-48.3 48.3z" fill="#F48E11" p-id="39029"></path><path d="M636.2 836.9c-30.4 0-55.1-24.7-55.1-55.1 0-30.4 24.7-55.1 55.1-55.1 30.4 0 55.1 24.7 55.1 55.1 0 30.4-24.7 55.1-55.1 55.1z m0-96.6c-22.9 0-41.5 18.6-41.5 41.5s18.6 41.5 41.5 41.5 41.5-18.6 41.5-41.5-18.6-41.5-41.5-41.5z" fill="#AA5700" p-id="39030"></path><path d="M587.9 601.9c0 26.7 21.6 48.3 48.3 48.3s48.3-21.6 48.3-48.3-21.6-48.3-48.3-48.3-48.3 21.6-48.3 48.3z" fill="#F48E11" p-id="39031"></path><path d="M636.2 657.1c-30.4 0-55.1-24.7-55.1-55.1s24.7-55.1 55.1-55.1c30.4 0 55.1 24.7 55.1 55.1s-24.7 55.1-55.1 55.1z m0-96.7c-22.9 0-41.5 18.6-41.5 41.5s18.6 41.5 41.5 41.5 41.5-18.6 41.5-41.5-18.6-41.5-41.5-41.5z" fill="#AA5700" p-id="39032"></path><path d="M587.9 422.1c0 26.7 21.6 48.3 48.3 48.3s48.3-21.6 48.3-48.3c0-26.7-21.6-48.3-48.3-48.3s-48.3 21.6-48.3 48.3z" fill="#F48E11" p-id="39033"></path><path d="M636.2 477.2c-30.4 0-55.1-24.7-55.1-55.1s24.7-55.1 55.1-55.1c30.4 0 55.1 24.7 55.1 55.1s-24.7 55.1-55.1 55.1z m0-96.6c-22.9 0-41.5 18.6-41.5 41.5s18.6 41.5 41.5 41.5 41.5-18.6 41.5-41.5-18.6-41.5-41.5-41.5z" fill="#AA5700" p-id="39034"></path><path d="M587.9 242.2c0 26.7 21.6 48.3 48.3 48.3s48.3-21.6 48.3-48.3-21.6-48.3-48.3-48.3-48.3 21.6-48.3 48.3z" fill="#F48E11" p-id="39035"></path><path d="M636.2 297.3c-30.4 0-55.1-24.7-55.1-55.1s24.7-55.1 55.1-55.1c30.4 0 55.1 24.7 55.1 55.1s-24.7 55.1-55.1 55.1z m0-96.6c-22.9 0-41.5 18.6-41.5 41.5s18.6 41.5 41.5 41.5 41.5-18.6 41.5-41.5-18.6-41.5-41.5-41.5z" fill="#AA5700" p-id="39036"></path><path d="M722.3 687.9c0 26.7 21.6 48.3 48.3 48.3 26.7 0 48.3-21.6 48.3-48.3s-21.6-48.3-48.3-48.3c-26.7 0-48.3 21.6-48.3 48.3z" fill="#F48E11" p-id="39037"></path><path d="M770.6 743c-30.4 0-55.1-24.7-55.1-55.1 0-30.4 24.7-55.1 55.1-55.1 30.4 0 55.1 24.7 55.1 55.1 0 30.4-24.7 55.1-55.1 55.1z m0-96.6c-22.9 0-41.5 18.6-41.5 41.5s18.6 41.5 41.5 41.5 41.5-18.6 41.5-41.5-18.6-41.5-41.5-41.5z" fill="#AA5700" p-id="39038"></path><path d="M722.3 508.1c0 26.7 21.6 48.3 48.3 48.3 26.7 0 48.3-21.6 48.3-48.3s-21.6-48.3-48.3-48.3c-26.7-0.1-48.3 21.6-48.3 48.3z" fill="#F48E11" p-id="39039"></path><path d="M770.6 563.2c-30.4 0-55.1-24.7-55.1-55.1 0-30.4 24.7-55.1 55.1-55.1 30.4 0 55.1 24.7 55.1 55.1 0 30.4-24.7 55.1-55.1 55.1z m0-96.7c-22.9 0-41.5 18.6-41.5 41.5s18.6 41.5 41.5 41.5 41.5-18.6 41.5-41.5c0-22.8-18.6-41.5-41.5-41.5z" fill="#AA5700" p-id="39040"></path><path d="M722.3 328.2c0 26.7 21.6 48.3 48.3 48.3 26.7 0 48.3-21.6 48.3-48.3 0-26.7-21.6-48.3-48.3-48.3-26.7 0-48.3 21.6-48.3 48.3z" fill="#F48E11" p-id="39041"></path><path d="M770.6 383.3c-30.4 0-55.1-24.7-55.1-55.1 0-30.4 24.7-55.1 55.1-55.1 30.4 0 55.1 24.7 55.1 55.1 0 30.4-24.7 55.1-55.1 55.1z m0-96.6c-22.9 0-41.5 18.6-41.5 41.5s18.6 41.5 41.5 41.5 41.5-18.6 41.5-41.5-18.6-41.5-41.5-41.5z" fill="#AA5700" p-id="39042"></path><path d="M856.7 598c0 26.7 21.6 48.3 48.3 48.3s48.3-21.6 48.3-48.3c0-26.7-21.6-48.3-48.3-48.3s-48.3 21.6-48.3 48.3z" fill="#F48E11" p-id="39043"></path><path d="M905 653.1c-30.4 0-55.1-24.7-55.1-55.1 0-30.4 24.7-55.1 55.1-55.1 30.4 0 55.1 24.7 55.1 55.1 0 30.4-24.7 55.1-55.1 55.1z m0-96.6c-22.9 0-41.5 18.6-41.5 41.5s18.6 41.5 41.5 41.5 41.5-18.6 41.5-41.5-18.6-41.5-41.5-41.5z" fill="#AA5700" p-id="39044"></path><path d="M856.7 418.1c0 26.7 21.6 48.3 48.3 48.3s48.3-21.6 48.3-48.3c0-26.7-21.6-48.3-48.3-48.3s-48.3 21.6-48.3 48.3z" fill="#F48E11" p-id="39045"></path><path d="M905 473.3c-30.4 0-55.1-24.7-55.1-55.1 0-30.4 24.7-55.1 55.1-55.1 30.4 0 55.1 24.7 55.1 55.1 0 30.3-24.7 55.1-55.1 55.1z m0-96.7c-22.9 0-41.5 18.6-41.5 41.5s18.6 41.5 41.5 41.5 41.5-18.6 41.5-41.5-18.6-41.5-41.5-41.5z" fill="#AA5700" p-id="39046"></path></svg>