<?xml version="1.0" standalone="no"?><!DOCTYPE svg PUBLIC "-//W3C//DTD SVG 1.1//EN" "http://www.w3.org/Graphics/SVG/1.1/DTD/svg11.dtd"><svg t="1726059632620" class="icon" viewBox="0 0 1024 1024" version="1.1" xmlns="http://www.w3.org/2000/svg" p-id="33258" xmlns:xlink="http://www.w3.org/1999/xlink" width="200" height="200"><path d="M948.385858 631.252011l-118.788453-68.581981 111.347994-34.790364c10.547217-3.296069 16.427134-14.518668 13.131065-25.065885-3.296069-10.546194-14.510482-16.437367-25.065885-13.131065l-146.531308 45.782719-132.162042-76.30385 129.778762-74.927503 148.914588 46.527686c1.987261 0.621147 3.996011 0.916882 5.973038 0.916882 8.519024-0.002047 16.417925-5.486968 19.092847-14.046924 3.296069-10.547217-2.582825-21.769816-13.131065-25.065885L827.214125 357.030509l120.253828-69.428256c9.570983-5.52483 12.849656-17.762549 7.323802-27.332509-5.525853-9.56996-17.761526-12.847609-27.332509-7.323802l-118.788453 68.583005L834.213539 207.703529c2.421142-10.783601-4.359284-21.485337-15.141862-23.905456-10.778484-2.422166-21.48636 4.358261-23.903409 15.141862l-33.616632 149.791561-133.721561 77.204359L627.830075 277.226952 744.142128 170.089863c8.127098-7.486508 8.646937-20.144806 1.160429-28.271904-7.487531-8.128121-20.145829-8.648984-28.27395-1.161453l-89.197508 82.162278L627.831099 83.646072c0-11.050684-8.904811-20.008706-19.954471-20.008706s-19.954471 8.958022-19.954471 20.008706l0 134.710075-84.3542-77.69964c-8.132214-7.487531-20.788465-6.965645-28.27395 1.161453-7.485485 8.128121-6.965645 20.786419 1.160429 28.272927l111.467721 102.673427 0 150.374846-128.349203-74.101695-33.616632-149.791561c-2.419096-10.781554-13.122879-17.566074-23.903409-15.141862-10.782577 2.420119-17.561981 13.121855-15.141862 23.905456l25.543769 113.824395-119.317503-68.88795c-9.573029-5.525853-21.808702-2.248204-27.332509 7.323802-5.525853 9.56996-2.246157 21.807678 7.323802 27.332509l120.781854 69.733201-113.731274 35.536354c-10.547217 3.296069-16.426111 14.518668-13.131065 25.065885 2.674922 8.562003 10.571776 14.046924 19.092847 14.046924 1.976004 0 3.986801-0.294712 5.973038-0.916882l148.914588-46.529733 129.250736 74.622558-131.634016 75.998905-146.531308-45.782719c-10.546194-3.296069-21.770839 2.582825-25.065885 13.131065-3.295046 10.547217 2.582825 21.769816 13.131065 25.065885l111.347994 34.790364-119.316479 68.886927c-9.56996 5.525853-12.849656 17.761526-7.323802 27.332509 3.705392 6.4192 10.431583 10.007935 17.347087 10.007935 3.394307 0 6.834662-0.865717 9.985422-2.685155l120.781854-69.733201-26.090215 116.26191c-2.421142 10.782577 4.359284 21.484314 15.141862 23.903409 1.475608 0.332575 2.948145 0.490164 4.39817 0.490164 9.156544 0 17.417695-6.325056 19.505239-15.632025l34.163077-152.226007 127.801734-73.786517 0 153.108097L476.456483 750.963487c-8.128121 7.487531-8.647961 20.145829-1.162476 28.271904 3.944845 4.28356 9.324366 6.453992 14.72333 6.453992 4.846378 0 9.705036-1.750877 13.548574-5.291516l84.356246-77.698616 0 135.283126c0 11.04966 8.904811 20.008706 19.954471 20.008706s19.954471-8.959046 19.954471-20.008706L627.831099 698.237635l89.197508 82.160231c8.130168 7.485485 20.786419 6.963599 28.27395-1.160429 7.485485-8.128121 6.965645-20.786419-1.160429-28.27395L627.831099 643.829468 627.831099 492.388337l133.174092 76.888158 34.163077 152.228053c2.086521 9.309016 10.348696 15.632025 19.505239 15.632025 1.450025 0 2.925632-0.158612 4.39817-0.490164 10.782577-2.419096 17.563004-13.120832 15.141862-23.903409l-26.091238-116.263957 120.253828 69.428256c3.151783 1.819438 6.591115 2.685155 9.985422 2.685155 6.915503 0 13.642718-3.589758 17.347087-10.007935C961.235514 649.013537 957.956841 636.777865 948.385858 631.252011z" fill="#272636" p-id="33259"></path><path d="M315.109748 744.626151c-5.5279-9.570983-17.764596-12.851703-27.333532-7.323802l-77.454046 44.718481 0-90.332355c0-11.04966-9.41544-20.008706-20.466124-20.008706s-20.466124 8.959046-20.466124 20.008706l0 88.454588-74.201979-42.840714c-9.56996-5.523807-21.806655-2.249227-27.332509 7.323802-5.525853 9.570983-2.24718 21.806655 7.323802 27.332509l76.28543 44.044122-75.987648 43.872207c-9.56996 5.525853-12.849656 17.761526-7.323802 27.332509 3.705392 6.4192 10.431583 10.007935 17.347087 10.007935 3.394307 0 6.834662-0.865717 9.985422-2.685155l73.903174-42.668799 0 85.936231c0 11.04966 9.41544 20.008706 20.466124 20.008706s20.466124-8.959046 20.466124-20.008706l0-87.813998 77.157287 44.546565c3.15076 1.819438 6.591115 2.685155 9.985422 2.685155 6.915503 0 13.640672-3.589758 17.34811-10.007935 5.523807-9.570983 2.245134-21.806655-7.324826-27.332509l-75.988672-43.872207 76.28543-44.044122C317.354881 766.432807 320.633554 754.197134 315.109748 744.626151z" fill="#272636" p-id="33260"></path></svg>