<?xml version="1.0" standalone="no"?><!DOCTYPE svg PUBLIC "-//W3C//DTD SVG 1.1//EN" "http://www.w3.org/Graphics/SVG/1.1/DTD/svg11.dtd"><svg t="1726059481368" class="icon" viewBox="0 0 1024 1024" version="1.1" xmlns="http://www.w3.org/2000/svg" p-id="26119" xmlns:xlink="http://www.w3.org/1999/xlink" width="200" height="200"><path d="M990.62807 462.486751a165.044162 165.044162 0 0 1-165.044162 165.044163H231.424924c-11.388047 0-22.512024-1.155309-33.272903-3.366901C104.704017 608.286764 33.37193 527.481142 33.37193 429.477919a198.052995 198.052995 0 0 1 198.052994-198.052995c0.759203 0 1.485397 0.132035 2.27761 0.132036C249.90987 101.271098 360.819547 0.363097 495.495584 0.363097c112.923216 0 208.978918 71.001999 246.741022 170.655664 10.760879-3.300883 21.983882-5.611502 33.834054-5.611502A115.530914 115.530914 0 0 1 891.601573 280.938173c0 10.001676-1.650442 19.50822-4.060086 28.783702A164.879118 164.879118 0 0 1 990.62807 462.486751z" fill="#8B9EBA" p-id="26120"></path><path d="M656.215589 800.959319a31.259364 31.259364 0 0 0-43.109535-11.652118l-52.946167 30.83025v-61.660499a31.688479 31.688479 0 0 0-31.589453-31.853523 31.65547 31.65547 0 0 0-31.556444 31.853523v61.660499l-52.979176-30.83025a31.3914 31.3914 0 0 0-43.109535 11.652118 32.018567 32.018567 0 0 0 11.553091 43.472633l52.946167 30.830249-52.946167 30.83025a31.853523 31.853523 0 0 0-11.553091 43.505641 31.292373 31.292373 0 0 0 43.109535 11.652118l52.979176-30.83025v61.62749c0 17.659725 14.061763 31.853523 31.556444 31.853524s31.589453-14.193798 31.589453-31.853524v-61.62749l52.946167 30.83025a31.424408 31.424408 0 0 0 43.109535-11.652118 32.051576 32.051576 0 0 0-11.520083-43.505641l-52.979176-30.83025 52.979176-30.830249a32.018567 32.018567 0 0 0 11.520083-43.472633z" fill="#1367DB" p-id="26121"></path><path d="M181.911676 693.548578S297.442589 844.299916 297.442589 908.105989a115.530914 115.530914 0 1 1-231.061827 0C66.380762 844.299916 181.911676 693.548578 181.911676 693.548578zM875.097157 693.548578s115.530914 150.751338 115.530913 214.557411a115.530914 115.530914 0 1 1-231.061827 0c0-63.806073 115.530914-214.557411 115.530914-214.557411z" fill="#0F74FF" p-id="26122"></path></svg>