<?xml version="1.0" standalone="no"?><!DOCTYPE svg PUBLIC "-//W3C//DTD SVG 1.1//EN" "http://www.w3.org/Graphics/SVG/1.1/DTD/svg11.dtd"><svg t="1726059431774" class="icon" viewBox="0 0 1024 1024" version="1.1" xmlns="http://www.w3.org/2000/svg" p-id="19524" xmlns:xlink="http://www.w3.org/1999/xlink" width="200" height="200"><path d="M868.07552 559.04256H88.91392c-28.27264-0.1536 11.776-136.26368 114.75968-92.16-3.8912-145.28512 157.32736-123.35104 157.32736-123.35104C382.64832 98.24256 608.3584 128.02048 608.3584 128.02048c217.97888 0 234.97728 204.16512 234.97728 204.16512 210.25792 104.91904 24.73984 226.85696 24.73984 226.85696zM285.5936 842.22976a46.08 46.08 0 0 1-92.16 0c0-24.576 46.08-98.8672 46.08-98.8672s46.08 74.30144 46.08 98.8672z m35.84-252.4672s46.08 74.30144 46.08 98.8672a46.08 46.08 0 0 1-92.16 0c0-24.56576 46.08-98.8672 46.08-98.8672z m322.56 262.7072a46.08 46.08 0 0 1-92.16 0c0-24.576 46.08-98.8672 46.08-98.8672s46.08 74.30144 46.08 98.8672z m40.96-252.4672s40.96 68.98688 40.96 91.8016a40.96 40.96 0 1 1-81.92 0c0-22.81472 40.96-91.8016 40.96-91.8016z" fill="#CCDCF5" p-id="19525"></path><path d="M643.9936 241.60256l-102.4 235.52 92.16-10.24-204.8 276.48 102.4-215.04-102.4-10.24z" fill="#FFCD00" p-id="19526"></path></svg>