<?xml version="1.0" standalone="no"?><!DOCTYPE svg PUBLIC "-//W3C//DTD SVG 1.1//EN" "http://www.w3.org/Graphics/SVG/1.1/DTD/svg11.dtd"><svg t="1726059713161" class="icon" viewBox="0 0 1024 1024" version="1.1" xmlns="http://www.w3.org/2000/svg" p-id="34813" xmlns:xlink="http://www.w3.org/1999/xlink" width="200" height="200"><path d="M863.9 303.9H160.1c-15 0-27.3-12.3-27.3-27.3s12.3-27.3 27.3-27.3h703.7c15 0 27.3 12.3 27.3 27.3s-12.2 27.3-27.2 27.3z" fill="#0745C0" p-id="34814"></path><path d="M863.9 308.8H160.1c-17.8 0-32.2-14.5-32.2-32.2s14.5-32.2 32.2-32.2h703.7c17.8 0 32.2 14.5 32.2 32.2s-14.4 32.2-32.1 32.2z m-703.8-54.5c-12.3 0-22.3 10-22.3 22.3s10 22.3 22.3 22.3h703.7c12.3 0 22.3-10 22.3-22.3s-10-22.3-22.3-22.3H160.1z" fill="#00138A" p-id="34815"></path><path d="M863.9 460H160.1c-15 0-27.3-12.3-27.3-27.3s12.3-27.3 27.3-27.3h703.7c15 0 27.3 12.3 27.3 27.3S878.9 460 863.9 460z" fill="#0745C0" p-id="34816"></path><path d="M863.9 464.9H160.1c-17.8 0-32.2-14.5-32.2-32.2 0-17.8 14.5-32.2 32.2-32.2h703.7c17.8 0 32.2 14.5 32.2 32.2 0.1 17.8-14.4 32.2-32.1 32.2z m-703.8-54.5c-12.3 0-22.3 10-22.3 22.3s10 22.3 22.3 22.3h703.7c12.3 0 22.3-10 22.3-22.3s-10-22.3-22.3-22.3H160.1z" fill="#00138A" p-id="34817"></path><path d="M863.9 618.6H160.1c-15 0-27.3-12.3-27.3-27.3s12.3-27.3 27.3-27.3h703.7c15 0 27.3 12.3 27.3 27.3s-12.2 27.3-27.2 27.3z" fill="#0745C0" p-id="34818"></path><path d="M863.9 623.5H160.1c-17.8 0-32.2-14.5-32.2-32.2 0-17.8 14.5-32.2 32.2-32.2h703.7c17.8 0 32.2 14.5 32.2 32.2 0.1 17.8-14.4 32.2-32.1 32.2zM160.1 569c-12.3 0-22.3 10-22.3 22.3s10 22.3 22.3 22.3h703.7c12.3 0 22.3-10 22.3-22.3s-10-22.3-22.3-22.3H160.1z" fill="#00138A" p-id="34819"></path><path d="M863.9 774.7H160.1c-15 0-27.3-12.3-27.3-27.3s12.3-27.3 27.3-27.3h703.7c15 0 27.3 12.3 27.3 27.3s-12.2 27.3-27.2 27.3z" fill="#0745C0" p-id="34820"></path><path d="M863.9 779.6H160.1c-17.8 0-32.2-14.5-32.2-32.2s14.5-32.2 32.2-32.2h703.7c17.8 0 32.2 14.5 32.2 32.2s-14.4 32.2-32.1 32.2z m-703.8-54.5c-12.3 0-22.3 10-22.3 22.3s10 22.3 22.3 22.3h703.7c12.3 0 22.3-10 22.3-22.3s-10-22.3-22.3-22.3H160.1z" fill="#00138A" p-id="34821"></path></svg>