<?xml version="1.0" standalone="no"?><!DOCTYPE svg PUBLIC "-//W3C//DTD SVG 1.1//EN" "http://www.w3.org/Graphics/SVG/1.1/DTD/svg11.dtd"><svg t="1727156722510" class="icon" viewBox="0 0 1024 1024" version="1.1" xmlns="http://www.w3.org/2000/svg" p-id="16137" xmlns:xlink="http://www.w3.org/1999/xlink" width="200" height="200"><path d="M772.6848 1023.8976c-7.168-154.27072-89.472-184.05888-194.29888-204.43136v2.3552c0 32.24576-26.40896 58.76224-58.76224 58.76224-32.24576 0-58.76224-26.40896-58.76224-58.76224v-3.1744c-106.77248 20.67968-186.92608 58.14784-194.19648 205.25056h506.01984z" fill="#598DEA" p-id="16138"></path><path d="M266.36288 942.0032a18.12992 18.12992 0 0 0-17.81248 14.63808c-5.8368 19.65568-9.82528 41.97376-11.77088 67.35872h36.54656c1.7408-20.98688 5.0176-39.92576 10.03008-57.02144 0.8192-2.048 1.3312-4.4032 1.3312-6.7584a18.2784 18.2784 0 0 0-18.32448-18.21696z m29.07648-59.06944c-6.7584 0-12.59008 3.6864-15.76448 9.00608a170.3936 170.3936 0 0 0-9.10848 13.92128c-2.3552 3.072-3.7888 6.9632-3.7888 11.05408 0 10.03008 8.192 18.22208 18.22208 18.22208a18.0224 18.0224 0 0 0 16.17408-9.92768c2.6624-4.4032 5.4272-8.69888 8.4992-12.69248 2.56-3.1744 3.9936-7.0656 3.9936-11.36128a18.14016 18.14016 0 0 0-18.2272-18.22208z m122.74176-35.31776v-37.77536c-35.72736 8.90368-70.84032 21.70368-100.42368 43.81184a18.1248 18.1248 0 0 0-7.2704 14.53568c0 10.03008 8.192 18.22208 18.22208 18.22208 3.9936 0 7.68-1.3312 10.64448-3.4816v0.1024c22.93248-16.88576 50.67264-27.63264 78.82752-35.41504z m207.39584-35.82976v37.57056c77.696 20.78208 131.74784 57.94304 140.45184 174.6432h36.54656c-10.33728-145.36192-85.9904-189.28128-176.9984-212.21376z" fill="#513F33" p-id="16139"></path><path d="M375.90016 840.35072l64.79872-28.55936 184.87808 6.8608 46.78144 38.79936-46.78144 84.5568-103.18848 30.60736-111.06816-37.46816-35.42016-94.7968z" fill="#FFFFFF" p-id="16140"></path><path d="M519.6288 744.73472c23.34208 0 42.48576 19.14368 42.48576 42.48576v40.64256c0 23.34208-19.14368 42.48576-42.48576 42.48576s-42.48576-19.14368-42.48576-42.48576v-40.64256c0-23.34208 19.14368-42.48576 42.48576-42.48576m0-36.43904c-43.50464 0-78.9248 35.42016-78.9248 78.9248v40.64256c0 43.50464 35.42016 78.9248 78.9248 78.9248s78.9248-35.42016 78.9248-78.9248v-40.64256c0.1024-43.50976-35.31776-78.9248-78.9248-78.9248z" fill="#D6D6D6" p-id="16141"></path><path d="M560.47104 870.44608H478.78144c-0.9216 0-1.7408-0.7168-1.7408-1.7408v-122.33216c0-0.9216 0.7168-1.7408 1.7408-1.7408h81.6896c0.9216 0 1.7408 0.7168 1.7408 1.7408v122.33216c0 1.024-0.8192 1.7408-1.7408 1.7408z" fill="#E8D3C8" p-id="16142"></path><path d="M447.96928 868.70528h143.21664v40.33536H447.96928v-40.33536z" fill="#FFFFFF" p-id="16143"></path><path d="M540.61056 971.17696v-40.13056c0-10.03008-8.192-18.22208-18.22208-18.22208s-18.22208 8.192-18.22208 18.22208v40.13056h36.44416z" fill="#513F33" p-id="16144"></path><path d="M647.48544 838.71232c-10.23488 61.41952-63.67232 108.51328-127.86176 108.51328-64.28672 0-117.62176-47.08864-127.86176-108.51328h-34.19136c10.54208 80.0512 79.3344 142.39744 162.05312 142.39744 82.816 0 151.50592-62.34112 162.05312-142.39744h-34.19136z" fill="#396FAA" p-id="16145"></path><path d="M595.8912 807.69536c-13.51168 20.78208-21.60128 61.93152-74.93632 62.64832-53.33504-0.7168-61.41952-41.87136-74.93632-62.64832-13.61408-20.98688-58.25024 0-76.47232 45.55264 50.05824 78.3104 38.49216 86.5024 50.26304 104.72448 15.25248-43.09504 69.50912-86.6048 101.14048-87.5264 31.52896 0.9216 85.888 44.52864 101.14048 87.5264 11.87328-18.22208 0.2048-26.40896 50.26304-104.72448-18.21184-45.55264-62.7456-66.53952-76.46208-45.55264z" fill="#FFFFFF" p-id="16146"></path><path d="M622.10048 979.67616c-0.8192 0-1.7408 0-2.56-0.1024a21.82144 21.82144 0 0 1-18.01728-14.43328c-12.79488-36.13696-60.60032-72.37632-81.1776-72.99072-19.24608 0.6144-67.05152 36.95616-79.8464 72.99072a21.8112 21.8112 0 0 1-18.01728 14.43328 21.94944 21.94944 0 0 1-20.88448-9.82528c-5.7344-8.80128-7.7824-16.37888-9.82528-23.54688-3.4816-12.48768-8.69888-31.42656-40.54016-81.28a21.67808 21.67808 0 0 1-1.8432-19.86048c14.63808-36.54656 45.65504-64.18432 75.44832-67.15392 16.78848-1.536 31.11936 4.8128 39.61856 17.81248 2.9696 4.608 5.8368 10.13248 8.80128 15.96928 11.36128 22.52288 19.75808 36.34176 48.11264 36.75136 27.74016-0.4096 36.13696-14.22848 47.49824-36.75136 2.9696-5.8368 5.8368-11.36128 8.80128-15.96928 8.4992-12.99968 22.83008-19.45088 39.61856-17.81248 29.78816 2.9696 60.80512 30.60736 75.44832 67.15392 2.6624 6.5536 1.9456 13.92128-1.8432 19.86048-31.83616 49.85344-37.05856 68.68992-40.54016 81.28-2.048 7.2704-4.096 14.84288-9.82528 23.64928a22.33856 22.33856 0 0 1-18.42688 9.82528z m-42.99776-107.69408a203.50464 203.50464 0 0 1 38.28736 35.62496c5.632-13.20448 14.63808-30.81216 30.19776-55.99744-11.56608-21.08928-28.14976-29.68576-34.39616-30.30016-1.8432 2.9696-3.4816 6.4512-5.3248 10.03008-6.03648 11.9808-14.12608 28.05248-28.76416 40.64256z m-184.67328-20.37248c15.55968 25.18528 24.57088 42.78784 30.19776 55.99744a199.99744 199.99744 0 0 1 38.18496-35.72736c-14.63808-12.59008-22.72768-28.66176-28.66176-40.43776-1.8432-3.584-3.4816-7.0656-5.3248-10.03008-6.144 0.512-22.83008 9.21088-34.39616 30.19776z m201.46176-43.91424h0.2048-0.2048z" fill="#513F33" p-id="16147"></path><path d="M312.12544 315.80672c-1.9456 0-3.8912-0.4096-5.7344-1.2288-7.3728-3.1744-10.84928-11.77088-7.68-19.14368 12.48768-29.17376 29.78816-49.23904 57.73824-67.05152 6.7584-4.3008 15.86688-2.3552 20.16768 4.5056 4.3008 6.7584 2.3552 15.86688-4.5056 20.16768-19.34848 12.28288-34.70336 26.20416-46.57664 53.94944a14.56128 14.56128 0 0 1-13.40928 8.80128zM385.11104 213.64224a14.63808 14.63808 0 1 0 29.27616 0 14.63808 14.63808 0 1 0-29.27616 0z" fill="#F9F9F9" p-id="16148"></path><path d="M297.48224 606.22848c-62.95552-2.048-93.6704-28.66176-89.6768-69.30432s28.04736-61.41952 78.72-55.07584c0.00512 55.07584 10.9568 124.38016 10.9568 124.38016z" fill="#F9E7DC" p-id="16149"></path><path d="M297.48224 623.32416h-0.512c-41.35936-1.3312-71.55712-12.38528-89.5744-32.86016-12.89728-14.74048-18.63168-33.78176-16.58368-55.17824 2.4576-24.77568 11.46368-43.50464 26.81856-55.79264 16.89088-13.51168 40.74496-18.32448 71.04512-14.53568 8.4992 1.1264 14.94528 8.2944 14.94528 16.89088 0 53.02784 10.64448 121.00096 10.74688 121.71776 0.8192 5.0176-0.7168 10.13248-4.096 13.92128a16.72192 16.72192 0 0 1-12.78976 5.8368zM269.43488 497.8176c-13.30688 0-23.54688 2.7648-30.50496 8.3968-7.9872 6.3488-12.59008 16.99328-14.12608 32.45056-1.2288 12.07808 1.536 21.60128 8.2944 29.27616 8.69888 9.92768 23.85408 16.58368 44.52864 19.55328-2.8672-21.70368-6.8608-56.61184-7.8848-89.6768h-0.3072z" fill="#513F33" p-id="16150"></path><path d="M740.54144 595.98848c62.95552-2.048 93.6704-28.66176 89.6768-69.30432s-28.04736-61.41952-78.72-55.07584c0.1024 55.07584-10.9568 124.38016-10.9568 124.38016z" fill="#F9E7DC" p-id="16151"></path><path d="M740.54144 613.08416c-4.9152 0-9.51808-2.1504-12.79488-5.7344a17.21856 17.21856 0 0 1-4.096-13.92128c0.1024-0.7168 10.74688-68.68992 10.74688-121.71776a17.03424 17.03424 0 0 1 14.94528-16.89088c30.30016-3.7888 54.15424 1.1264 71.04512 14.53568 15.35488 12.28288 24.36608 31.01696 26.81856 55.79264 2.1504 21.39648-3.584 40.43776-16.58368 55.17824-18.01728 20.47488-48.11264 31.52896-89.5744 32.86016-0.09728-0.1024-0.30208-0.1024-0.50688-0.1024z m27.84768-125.50656c-1.024 33.06496-5.0176 67.97312-7.8848 89.6768 20.57728-2.9696 35.82976-9.62048 44.52864-19.55328 6.7584-7.68 9.41568-17.30048 8.2944-29.27616-1.536-15.45728-6.144-26.10176-14.12608-32.45056-6.9632-5.5296-17.19808-8.3968-30.50496-8.3968h-0.3072z" fill="#513F33" p-id="16152"></path><path d="M275.93216 390.73792c46.03392-7.5776 134.65088-13.10208 178.95424-58.35264l20.42368 43.60704c39.22944-14.53568 141.34784-36.44416 189.32736-115.88096 52.84352 31.93856 81.90976 77.3888 87.9616 130.00704 17.39776 152.63232-9.93792 278.13888-75.10528 333.6192-87.85408 74.83392-233.20064 76.67712-326.89152-7.3728C266.96704 634.06592 280.4736 488.9088 275.93216 390.73792z" fill="#F9E7DC" p-id="16153"></path><path d="M364.43648 432.39936a7.168 7.168 0 0 1-6.144-10.84928c17.50528-29.27616 80.4608-34.29376 114.85696-16.58368 3.584 1.8432 4.9152 6.144 3.072 9.72288-1.8432 3.584-6.144 4.9152-9.72288 3.072-29.99296-15.45728-83.7376-9.21088-95.81568 11.15648-1.3312 2.2528-3.7888 3.4816-6.2464 3.4816z m319.49312 0c-2.4576 0-4.8128-1.2288-6.144-3.4816-12.07808-20.37248-65.82272-26.61376-95.81568-11.15648-3.4816 1.8432-7.8848 0.4096-9.72288-3.072s-0.4096-7.8848 3.072-9.72288c34.29376-17.71008 97.35168-12.79488 114.85696 16.58368 2.048 3.3792 0.9216 7.8848-2.4576 9.82528-1.2288 0.7168-2.56 1.024-3.7888 1.024zM518.04672 696.86272c-34.29376 0-64.59392-16.58368-78.3104-43.29984-3.2768-6.3488-0.7168-14.02368 5.5296-17.30048s14.02368-0.7168 17.30048 5.5296c11.25888 22.01088 38.18496 30.40256 60.29312 29.17376 18.73408-1.1264 41.56416-10.03008 49.54624-31.52896a12.8512 12.8512 0 0 1 16.48128-7.5776 12.81536 12.81536 0 0 1 7.5776 16.48128c-10.23488 27.74016-37.87776 46.26944-72.06912 48.21504-2.15552 0.3072-4.30592 0.3072-6.3488 0.3072zM520.2688 601.472c-8.69888 0-17.19808-1.7408-22.52288-3.3792a10.18368 10.18368 0 0 1-6.7584-12.69248 10.19904 10.19904 0 0 1 12.59008-6.7584c8.59648 2.6624 21.29408 3.584 26.51136 0.8192a10.12224 10.12224 0 0 1 9.62048 17.81248c-5.51936 3.072-12.48256 4.1984-19.44064 4.1984z" fill="#513F33" p-id="16154"></path><path d="M519.70048 797.14304c-66.89792 0-134.13376-22.93248-186.30144-68.48512-77.6448-74.52672-79.41632-192.55808-80.96768-287.45216-0.3328-17.50528-0.55296-34.29376-1.21856-49.85344-0.44544-8.59648 6.0928-16.07168 15.2832-17.50528 7.0912-1.1264 15.17568-2.2528 23.92576-3.3792 45.7472-6.2464 114.86208-15.55968 149.08416-49.75104 4.20864-4.1984 10.40896-6.144 16.6144-5.2224 6.0928 0.9216 11.29472 4.7104 13.84448 9.92768l14.06464 29.17376c1.88416-0.6144 3.76832-1.2288 5.65248-1.7408 46.40768-14.63808 123.93984-39.00416 162.37568-101.14048 2.54976-4.096 6.64576-6.9632 11.62752-8.0896a19.77344 19.77344 0 0 1 14.2848 2.1504c57.59488 33.88416 91.60192 83.1232 98.58048 142.60224 18.60608 159.28832-12.40576 289.50016-82.96448 348.16-48.9472 40.43776-111.20128 60.60544-173.88544 60.60544zM288.64512 405.1712c0.3328 11.46368 0.55296 23.34208 0.77312 35.62496 1.43872 88.8576 3.10272 199.41376 70.00064 263.7056 85.06368 74.21952 224.07168 77.3888 309.46816 6.5536 61.80864-51.38944 88.27392-170.6496 70.99904-319.08352-5.0944-43.29984-28.02176-80.256-66.56512-107.69408-47.1808 61.62432-124.27264 85.888-171.79136 100.83328-7.97696 2.56-15.06304 4.7104-20.71552 6.7584-9.19552 3.2768-19.60448-0.6144-23.59296-9.00608l-10.8544-22.52288c-44.19584 29.48096-106.99264 37.98016-150.528 43.81184-2.53952 0.40448-4.97664 0.71168-7.1936 1.01888z" fill="#513F33" p-id="16155"></path><path d="M243.12832 488.9088l-34.70336-109.32736c41.35936-269.02528 332.08832-383.98976 496.08192-219.99104 71.96672 1.3312 143.21664 146.38592 111.27296 322.36032-37.36576-7.9872-63.26272 0-63.26272 0 0-74.93632-42.99264-204.53376-84.352-217.94304-30.70976 36.03456-103.70048 103.49568-194.40128 111.58016 0 0-4.5056-25.69216-14.63808-38.69696-22.42048 28.66176-158.67392 105.33888-158.67392 135.94624-11.25888 9.00608-44.22144 13.40928-57.32352 16.07168z" fill="#70492E" p-id="16156"></path><path d="M253.6704 286.32064c-13.92128 28.25216-44.54912 207.27296 203.50976 0 15.13984-16.24064 36.64896 15.04768 41.87136 29.78816 5.2224 14.74048 100.11648 20.37248 193.47968-144.54784-9.216-52.81792-274.86208-218.86464-438.8608 114.75968zM735.42144 166.95808c-10.84928-4.1984-21.70368 79.3344-8.2944 101.03808 16.58368 27.02336 55.89504 93.6704 53.33504 199.31136 41.35936 33.57696 29.58336 10.54208 34.90816-3.6864 7.8848-48.11264 19.34848-258.176-79.9488-296.66304z" fill="#895D3F" p-id="16157"></path><path d="M660.18304 263.69536c31.11936-53.43744 36.13696-66.43712 35.72736-106.97728m-20.98688 115.57888l-29.48096-17.19808c30.40256-52.20864 33.78176-62.23872 33.37216-98.17088l34.08896-0.4096c0.60928 45.14304-6.144 61.21472-37.98016 115.77856z" fill="#604431" p-id="16158"></path><path d="M237.65504 506.00448c-3.9936 0-7.87968-1.3312-11.02848-3.8912a16.82944 16.82944 0 0 1-6.41024-13.20448s-19.28704 8.79616-35.4048-111.98976C182.55872 245.76 300.58496 122.63424 428.97408 81.68448c104.95488-33.47456 212.75136-10.54208 289.75616 61.11232 28.4672 2.7648 55.99744 18.52928 78.37696 45.04064 48.43008 57.63584 65.45408 189.99808 45.4912 296.97536a17.28 17.28 0 0 1-7.45984 11.15648c-3.88608 2.56-8.82176 3.584-13.44512 2.4576-32.88576-6.8608-55.99744-0.4096-56.20736-0.3072-5.25312 1.536-11.02848 0.512-15.44192-2.6624a16.88064 16.88064 0 0 1-7.04-13.61408c0-64.49152-35.19488-175.1552-65.02912-196.64896-30.67904 32.24576-104.96 98.99008-202.04032 107.27936-9.1392 0.8192-17.2288-5.3248-18.80576-14.02368-0.62976-3.584-1.78688-8.3968-3.36384-13.30688-21.3504 29.81376-112.03584 90.0864-139.72992 97.35168s-40.76544 37.36576-64.40448 41.46176c-3.25632 0.6144-6.09792 1.024-8.40704 1.536-1.2544 0.4096-2.41152 0.512-3.56864 0.512z m-15.96928-137.07264c13.4144 109.78816 33.408 99.50208 33.408 99.50208 7.9872-1.536 17.33632-3.584 23.74656-5.7344 0-9.31328-0.10752-16.58368-0.20992-23.95648C359.90016 404.48 425.82528 351.01184 445.4656 326.54336a17.85856 17.85856 0 0 1 13.76256-6.5536c5.35552 0 10.50624 2.4576 13.76256 6.5536 6.9376 8.69888 11.65824 20.67968 14.60224 30.30016 90.88-14.74048 159.48288-88.448 172.8256-103.80288 4.62336-5.2224 11.97568-7.3728 18.70336-5.12 50.00704 15.76448 91.19232 140.24704 97.81248 214.15424 9.03168-0.7168 20.59264-1.024 33.82784 0.4096 13.65504-90.5984-1.25952-205.66016-40.87296-252.7488-17.54624-20.88448-38.55872-32.65536-59.15136-32.96256a17.78688 17.78688 0 0 1-12.07808-5.0176c-67.7632-66.02752-164.52608-87.5264-258.87232-57.43104-111.67232 35.53792-231.51616 144.8192-218.10176 254.60736z" fill="#513F33" p-id="16159"></path><path d="M381.19936 506.00448a31.76448 31.76448 0 0 0 63.52384 0.0256v-0.0256a31.76448 31.76448 0 0 0-63.52384-0.0256v0.0256zM604.55936 503.89504a31.75936 31.75936 0 1 0 63.51872 0 31.75936 31.75936 0 0 0-63.51872 0z" fill="#513F33" p-id="16160"></path><path d="M310.69184 273.93024c-1.9456 0-3.8912-0.4096-5.7344-1.2288-7.3728-3.1744-10.84928-11.77088-7.68-19.14368 12.48768-29.17376 29.78816-49.23904 57.73824-67.05152 6.7584-4.3008 15.86688-2.3552 20.16768 4.5056 4.3008 6.7584 2.3552 15.86688-4.5056 20.16768-19.34848 12.28288-34.70336 26.20416-46.57664 53.94944a14.55616 14.55616 0 0 1-13.40928 8.80128zM383.68256 171.76576a14.63808 14.63808 0 1 0 29.27616 0 14.63808 14.63808 0 0 0-29.27616 0z" fill="#F9F9F9" p-id="16161"></path></svg>