<?xml version="1.0" standalone="no"?><!DOCTYPE svg PUBLIC "-//W3C//DTD SVG 1.1//EN" "http://www.w3.org/Graphics/SVG/1.1/DTD/svg11.dtd"><svg t="1726734996380" class="icon" viewBox="0 0 1024 1024" version="1.1" xmlns="http://www.w3.org/2000/svg" p-id="7479" xmlns:xlink="http://www.w3.org/1999/xlink" width="200" height="200"><path d="M920.7808 322.56l-220.16-219.904a92.7232 92.7232 0 0 0-131.1232 131.1232l23.5008 23.5008L506.88 343.6032a319.5904 319.5904 0 0 0-392.2432 46.8992l-37.3248 37.3248 216.5248 216.5248L204.8 733.44a60.2112 60.2112 0 0 0 85.1456 85.1456L378.88 729.4976l216.5248 216.5248 37.376-37.3248a319.6416 319.6416 0 0 0 46.8992-392.192L766.1568 430.08l23.5008 23.5008A92.7232 92.7232 0 1 0 920.7808 322.56zM465.92 454.8608A41.2672 41.2672 0 0 1 408.7296 465.92c-55.9104-37.5808-122.2656-8.1408-122.88-7.8336A41.2672 41.2672 0 1 1 250.88 383.6416c4.4032-2.048 108.8512-49.9712 204.0832 13.9776A41.2672 41.2672 0 0 1 465.92 454.8608z" fill="#F23D4F" p-id="7480"></path><path d="M569.7536 102.656a92.7232 92.7232 0 0 0 0 131.1232l23.5008 23.5008L506.88 343.6032a319.5904 319.5904 0 0 0-392.2432 46.8992l-37.3248 37.3248 216.5248 216.5248L204.8 733.44a60.2112 60.2112 0 0 0 85.1456 85.1456L378.88 729.4976l105.8304 105.8304A508.9792 508.9792 0 0 0 721.92 627.8656a318.5152 318.5152 0 0 0-41.8816-111.36L766.1568 430.08l20.1728 20.48a510.9248 510.9248 0 0 0 6.656-81.92 505.0368 505.0368 0 0 0-54.2208-228.1472l-37.888-37.888a92.7232 92.7232 0 0 0-131.1232 0.0512zM465.92 454.8608A41.2672 41.2672 0 0 1 408.7296 465.92c-55.9104-37.5808-122.2656-8.1408-122.88-7.8336A41.2672 41.2672 0 1 1 250.88 383.6416c4.4032-2.048 108.8512-49.9712 204.0832 13.9776A41.2672 41.2672 0 0 1 465.92 454.8608z" fill="#FC4956" p-id="7481"></path><path d="M253.8496 684.4416A507.2896 507.2896 0 0 0 641.4848 75.776a92.672 92.672 0 0 0-71.68 158.0032l23.5008 23.5008L506.88 343.6032a319.5904 319.5904 0 0 0-392.2432 46.8992l-37.3248 37.3248 216.5248 216.5248z m32-226.1504A41.2672 41.2672 0 1 1 250.88 383.6416c4.4032-2.048 108.8512-49.9712 204.0832 13.9776a41.2672 41.2672 0 1 1-46.08 68.5056C352.8192 428.544 286.72 457.984 285.8496 458.2912z" fill="#FF5C64" p-id="7482"></path><path d="M230.912 438.5792A41.3696 41.3696 0 0 1 250.88 383.6416a236.1856 236.1856 0 0 1 127.488-16.3328 512.9216 512.9216 0 0 0 49.7664-58.112 319.232 319.232 0 0 0-313.3952 81.3056l-37.3248 37.3248 71.68 71.68a499.8656 499.8656 0 0 0 103.8336-40.2944 40.96 40.96 0 0 1-22.016-20.6336z" fill="#FF716E" p-id="7483"></path></svg>