<?xml version="1.0" standalone="no"?><!DOCTYPE svg PUBLIC "-//W3C//DTD SVG 1.1//EN" "http://www.w3.org/Graphics/SVG/1.1/DTD/svg11.dtd"><svg t="1726735025029" class="icon" viewBox="0 0 1024 1024" version="1.1" xmlns="http://www.w3.org/2000/svg" p-id="11343" xmlns:xlink="http://www.w3.org/1999/xlink" width="200" height="200"><path d="M752.768 955.392H257.92c-112.384 0-203.392-91.008-203.392-203.392V257.152C54.528 144.768 145.536 53.76 257.92 53.76h494.848C865.152 53.76 956.16 144.768 956.16 257.152v494.848c0 112.384-91.008 203.392-203.392 203.392z" fill="#FF4D3C" p-id="11344"></path><path d="M616.576 765.952H370.56c-67.968 0-123.008-55.04-123.008-123.008V396.8c0-67.968 55.04-123.008 123.008-123.008h166.272c9.984 0 18.176 8.064 18.176 18.176 0 9.984-8.064 18.176-18.176 18.176H370.56c-47.872 0-86.656 38.784-86.656 86.656v246.016c0 47.872 38.784 86.656 86.656 86.656h246.016c47.872 0 86.656-38.784 86.656-86.656V469.12c0-9.984 8.064-18.176 18.176-18.176 9.984 0 18.176 8.064 18.176 18.176v173.824c0 67.968-55.04 123.008-123.008 123.008z" fill="#FFFFFF" p-id="11345"></path><path d="M694.784 312.704m-113.408 0a113.408 113.408 0 1 0 226.816 0 113.408 113.408 0 1 0-226.816 0Z" fill="#FFFFFF" p-id="11346"></path></svg>